<svg xmlns="http://www.w3.org/2000/svg" viewBox="0 0 240 280"><rect width="240" height="280" rx="8" fill="#fff1cf"/><path d="M32 232c38-34 134-33 176 0v28H32z" fill="#e0b55f" opacity=".45"/><circle cx="120" cy="102" r="58" fill="#f2c78d"/><path d="M63 111c7-53 33-79 78-72 38 6 45 41 39 77-23-22-55-39-117-5z" fill="#ad6b35"/><path d="M82 174c21 24 55 24 76 0" fill="none" stroke="#8b5331" stroke-width="4" stroke-linecap="round"/><path d="M88 112l18-4M135 108l18 4" stroke="#6d432a" stroke-width="5" stroke-linecap="round"/><path d="M26 24c35-14 75-17 118-10" fill="none" stroke="#b96b35" stroke-width="2" opacity=".45"/><text x="120" y="258" text-anchor="middle" font-family="Georgia" font-size="18" fill="#8a4d2a">portrait</text></svg>
