<svg xmlns="http://www.w3.org/2000/svg" viewBox="0 0 420 180" role="img" aria-label="editable seaside lighthouse illustration"><defs><linearGradient id="sky" x1="0" y1="0" x2="1" y2="1"><stop stop-color="#f8d49d"/><stop offset="1" stop-color="#e27c43"/></linearGradient></defs><rect width="420" height="180" fill="none"/><path d="M0 144 C58 126 87 139 139 118 C190 97 232 101 277 119 C320 136 363 123 420 100 L420 180 L0 180 Z" fill="#c96f39" opacity=".42"/><path d="M24 146 C90 121 148 135 208 113 C267 91 324 91 398 79 L420 180 L0 180 Z" fill="#f0b45d" opacity=".85"/><path d="M238 141 l43-72 l44 72 z" fill="#fff0c9" stroke="#9a5330" stroke-width="4"/><rect x="272" y="71" width="18" height="70" fill="#9f4e31"/><path d="M268 71 h27 l-5-18 h-17 z" fill="#fff4d1" stroke="#9a5330" stroke-width="4"/><rect x="269" y="42" width="25" height="16" fill="#d87135"/><path d="M263 42 h38 l-19-19 z" fill="#9a5330"/><path d="M247 141 h93 v28 h-93z" fill="#b85d35"/><path d="M48 151 c26-28 66-29 95-5" fill="none" stroke="#7e9e61" stroke-width="8" stroke-linecap="round"/><path d="M104 137 c5-22 2-42-10-62" stroke="#8d5a32" stroke-width="7" stroke-linecap="round"/><path d="M96 84 c-15-19-41-18-58-5 c23-2 40 5 58 5z" fill="#86a65d"/><path d="M102 82 c17-18 43-13 57 4 c-22-6-40-3-57-4z" fill="#6f9258"/><path d="M14 169 h388" stroke="#fff0cd" stroke-width="5" opacity=".6"/></svg>