<svg xmlns="http://www.w3.org/2000/svg" viewBox="0 0 300 170"><rect x="18" y="18" width="264" height="134" rx="4" fill="#fbedcb" stroke="#d79a5e" stroke-width="3" opacity=".95"/><path d="M35 138 C80 104 116 124 154 96 C197 65 228 83 270 54" fill="none" stroke="#d97b3e" stroke-width="8" opacity=".35"/><path d="M208 116 l30-48 l30 48z" fill="#fff3ca" stroke="#9b5735" stroke-width="3"/><rect x="232" y="72" width="12" height="44" fill="#a75432"/><path d="M229 71 h18 l-4-13 h-10z" fill="#fff3ca" stroke="#9b5735" stroke-width="3"/><path d="M40 43 h118 M40 61 h92 M40 79 h126" stroke="#bf7543" stroke-width="4" stroke-linecap="round" opacity=".45"/><path d="M34 28 l17 0 M34 28 l0 17 M266 144 l-17 0 M266 144 l0-17" fill="none" stroke="#d08a4f" stroke-width="3" opacity=".65"/></svg>