<svg xmlns="http://www.w3.org/2000/svg" viewBox="0 0 260 170"><rect x="20" y="24" width="218" height="120" rx="6" fill="#fbedc9" stroke="#ddb37d" stroke-width="3"/><path d="M40 37 C67 31 88 40 119 34 C156 27 188 36 226 31" stroke="#e6bd7d" stroke-width="7" opacity=".35"/><path d="M77 117 h82" stroke="#9e6538" stroke-width="4"/><path d="M114 111 V58" stroke="#7a5335" stroke-width="4"/><path d="M117 61 C98 76 88 90 78 111 h39z" fill="#fff1c8" stroke="#7a5335" stroke-width="4"/><path d="M119 65 C140 80 148 95 155 111 h-36z" fill="#ead08d" stroke="#7a5335" stroke-width="4"/><path d="M63 120 C96 133 137 131 172 118" fill="none" stroke="#ca743e" stroke-width="5" stroke-linecap="round"/><text x="155" y="60" font-family="serif" font-size="18" fill="#7a5335" transform="rotate(-3 155 60)">New pages</text><text x="166" y="85" font-family="serif" font-size="18" fill="#7a5335" transform="rotate(-3 166 85)">every Friday!</text></svg>