<svg xmlns="http://www.w3.org/2000/svg" viewBox="0 0 100 88" role="img" aria-label="Episode sketch icon">
  <rect width="100" height="88" rx="5" fill="#f8edcf"/>
  <filter id="paperNoise"><feTurbulence type="fractalNoise" baseFrequency="0.9" numOctaves="2" stitchTiles="stitch"/><feColorMatrix type="saturate" values="0"/><feComponentTransfer><feFuncA type="table" tableValues="0 .12"/></feComponentTransfer></filter>
  <rect width="100" height="88" rx="5" filter="url(#paperNoise)" opacity=".75"/>
  <rect x="4" y="4" width="92" height="80" rx="4" fill="none" stroke="#d3b177" stroke-width="2" opacity=".7"/>
  <path d="M14 62 L28 28 L43 62 Z M38 62 L54 23 L74 62 Z M68 62 L80 36 L92 62 Z M9 70 h86 M20 52 c12 -8 25 -8 37 0 M53 48 c9 -6 19 -7 28 -2" fill="none" stroke="#71513a" stroke-width="3" stroke-linecap="round" stroke-linejoin="round" opacity=".88"/>
  <path d="M12 16 C29 10 54 12 87 9 M9 79 C30 84 56 80 91 82" fill="none" stroke="#c77639" stroke-width="1.5" opacity=".35" stroke-linecap="round"/>
</svg>