<svg xmlns="http://www.w3.org/2000/svg" viewBox="0 0 100 88" role="img" aria-label="Episode sketch icon">
  <rect width="100" height="88" rx="5" fill="#f8edcf"/>
  <filter id="paperNoise"><feTurbulence type="fractalNoise" baseFrequency="0.9" numOctaves="2" stitchTiles="stitch"/><feColorMatrix type="saturate" values="0"/><feComponentTransfer><feFuncA type="table" tableValues="0 .12"/></feComponentTransfer></filter>
  <rect width="100" height="88" rx="5" filter="url(#paperNoise)" opacity=".75"/>
  <rect x="4" y="4" width="92" height="80" rx="4" fill="none" stroke="#d3b177" stroke-width="2" opacity=".7"/>
  <path d="M10 58 C24 45 38 45 52 58 C64 68 78 68 92 55 M15 47 C28 35 44 35 58 47 M28 37 q15 -18 34 0 M18 66 h68 M24 25 c9 -6 18 -6 27 0" fill="none" stroke="#71513a" stroke-width="3" stroke-linecap="round" stroke-linejoin="round" opacity=".88"/>
  <path d="M12 16 C29 10 54 12 87 9 M9 79 C30 84 56 80 91 82" fill="none" stroke="#c77639" stroke-width="1.5" opacity=".35" stroke-linecap="round"/>
</svg>